<svg width="593.6840087890624px" height="274.4px" xmlns="http://www.w3.org/2000/svg" viewBox="-46.842004394531216 -62.19999999999999 593.6840087890624 274.4" style="background: rgba(147, 219, 233, 0);" preserveAspectRatio="xMidYMid"><defs><filter id="editing-extrusion" x="-100%" y="-100%" width="300%" height="300%"><feFlood result="color1" flood-color="#55558c"></feFlood><feConvolveMatrix order="9,9" divisor="1" kernelMatrix="1 0 0 0 0 0 0 0 0 0 1 0 0 0 0 0 0 0 0 0 1 0 0 0 0 0 0 0 0 0 1 0 0 0 0 0 0 0 0 0 1 0 0 0 0 0 0 0 0 0 1 0 0 0 0 0 0 0 0 0 1 0 0 0 0 0 0 0 0 0 1 0 0 0 0 0 0 0 0 0 1" in="SourceAlpha" result="extrude"></feConvolveMatrix><feComposite in="color1" in2="extrude" result="comp-extrude" operator="in"></feComposite><feOffset dx="4.5" dy="4.5" in="comp-extrude" result="offset-extrude"></feOffset><feMerge><feMergeNode in="offset-extrude"></feMergeNode><feMergeNode in="SourceGraphic"></feMergeNode></feMerge></filter></defs><g filter="url(#editing-extrusion)"><g transform="translate(42.636566162109375, 137.92499160766602)"><path d="M28.05-3.75L28.05-3.75L28.05-3.75Q14.85 6.45 8.70 6.45L8.70 6.45L8.70 6.45Q5.40 6.45 3.82 3.23L3.82 3.23L3.82 3.23Q2.25 0 2.25-3.75L2.25-3.75L2.25-3.75Q2.25-10.95 8.32-25.35L8.32-25.35L8.32-25.35Q14.40-39.75 19.95-39.75L19.95-39.75L19.95-39.75Q22.80-39.75 24.82-28.50L24.82-28.50L24.82-28.50Q26.85-17.25 28.95-12.15L28.95-12.15L28.95-12.15Q39.15-22.95 58.50-48.15L58.50-48.15L58.50-48.15Q82.80-80.10 90.75-83.10L90.75-83.10L90.75-83.10Q93.45-84.15 96.30-84.15L96.30-84.15L96.30-84.15Q99.15-84.15 101.02-82.95L101.02-82.95L101.02-82.95Q102.90-81.75 102.90-79.95L102.90-79.95L102.90-79.95Q102.90-77.40 98.55-76.95L98.55-76.95L98.55-76.95Q93.30-74.10 82.35-63.15L82.35-63.15L82.35-63.15Q71.40-52.50 64.80-43.20L64.80-43.20L64.80-43.20Q48.75-20.85 31.80-6.75L31.80-6.75L31.80-6.75Q40.20 5.70 58.20 5.70L58.20 5.70L58.20 5.70Q60.15 5.70 64.05 5.40L64.05 5.40L64.05 5.40Q105.75 1.50 123.15-30.75L123.15-30.75L123.15-30.75Q130.20-43.65 130.20-56.25L130.20-56.25L130.20-56.25Q130.20-68.85 121.05-78.90L121.05-78.90L121.05-78.90Q113.70-87.15 105.08-89.10L105.08-89.10L105.08-89.10Q96.45-91.05 87.45-91.05L87.45-91.05L87.45-91.05Q64.35-91.05 44.85-80.40L44.85-80.40L44.85-80.40Q24.30-69.15 24.30-55.20L24.30-55.20L24.30-55.20Q24.30-51.45 26.32-49.05L26.32-49.05L26.32-49.05Q28.35-46.65 29.10-46.35L29.10-46.35L28.20-46.35L28.20-46.35Q24.30-47.10 21.30-50.25L21.30-50.25L21.30-50.25Q18-54.15 18-58.50L18-58.50L18-58.50Q18-73.50 36.82-84.30L36.82-84.30L36.82-84.30Q55.65-95.10 81-95.10L81-95.10L81-95.10Q92.70-95.10 105-92.40L105-92.40L105-92.40Q117.30-89.70 127.35-79.50L127.35-79.50L127.35-79.50Q138.90-67.50 138.90-52.35L138.90-52.35L138.90-52.35Q138.90-41.10 132.30-29.10L132.30-29.10L132.30-29.10Q120.90-8.40 98.25 1.20L98.25 1.20L98.25 1.20Q80.10 8.85 59.10 8.85L59.10 8.85L59.10 8.85Q38.10 8.85 28.05-3.75ZM7.65-4.35L7.65-4.35L7.65-4.35Q7.65 0.30 9.45 3.75L9.45 3.75L9.45 3.75Q15.90 0.90 25.05-8.10L25.05-8.10L25.05-8.10Q20.70-15.30 19.57-19.43L19.57-19.43L19.57-19.43Q18.45-23.55 18-30.30L18-30.30L18-30.30Q7.65-15.45 7.65-4.35ZM29.10-46.35L29.10-46.35L29.10-46.35Q29.25-46.35 29.40-46.50L29.40-46.50L29.40-46.50Q29.40-46.20 29.32-46.20L29.32-46.20L29.32-46.20Q29.25-46.20 29.10-46.35ZM145.80 1.95L145.80 1.95L145.80 1.95Q144.15 1.95 142.80 1.50L142.80 1.50L142.80 1.50Q133.20-1.20 133.20-9.30L133.20-9.30L133.20-9.30Q133.20-19.80 146.40-33.60L146.40-33.60L146.40-33.60Q159.60-47.40 170.10-47.40L170.10-47.40L170.10-47.40Q173.55-47.40 175.72-45.52L175.72-45.52L175.72-45.52Q177.90-43.65 177.90-40.95L177.90-40.95L177.90-40.95Q177.90-32.55 165.22-24.90L165.22-24.90L165.22-24.90Q152.55-17.25 144.60-17.25L144.60-17.25L144.60-17.25Q143.40-17.25 142.50-17.55L142.50-17.55L142.50-17.55Q140.25-13.50 140.25-9L140.25-9L140.25-9Q140.25-1.20 147.68-1.20L147.68-1.20L147.68-1.20Q155.10-1.20 166.95-11.25L166.95-11.25L166.95-11.25Q176.10-18.60 182.55-26.85L182.55-26.85L182.55-26.85Q183.90-28.65 184.88-28.65L184.88-28.65L184.88-28.65Q185.85-28.65 185.85-27.75L185.85-27.75L185.85-27.75Q185.85-26.85 184.65-25.20L184.65-25.20L184.65-25.20Q176.55-14.55 165.15-6.30L165.15-6.30L165.15-6.30Q153.75 1.95 145.80 1.95ZM174.15-41.25L174.15-41.25L174.15-41.25Q174.15-43.05 170.32-43.05L170.32-43.05L170.32-43.05Q166.50-43.05 159.45-37.20L159.45-37.20L159.45-37.20Q150-29.40 144.75-20.85L144.75-20.85L144.75-20.85Q145.65-20.55 146.70-20.55L146.70-20.55L146.70-20.55Q152.40-20.55 161.93-26.63L161.93-26.63L161.93-26.63Q171.45-32.70 173.85-39.90L173.85-39.90L173.85-39.90Q174.15-40.65 174.15-41.25ZM217.35-58.95L217.35-58.95L217.35-58.95Q221.85-58.95 225-55.95L225-55.95L225-55.95Q228.15-52.95 228.15-47.55L228.15-47.55L228.15-47.55Q228.15-35.70 208.50-17.85L208.50-17.85L208.50-17.85Q191.85-2.85 181.65 0.45L181.65 0.45L181.65 0.45Q180 0.45 177.30-1.35L177.30-1.35L177.30-1.35Q174.60-3.15 174.60-4.65L174.60-4.65L174.60-4.65Q174.60-7.95 181.80-27L181.80-27L181.80-27Q189-46.05 191.70-48.30L191.70-48.30L191.70-48.30Q192.30-48.90 193.65-48.90L193.65-48.90L193.65-48.90Q195-48.90 196.50-47.48L196.50-47.48L196.50-47.48Q198-46.05 198.15-44.10L198.15-44.10L198.15-44.10Q198.15-43.95 190.72-26.70L190.72-26.70L190.72-26.70Q183.30-9.45 183.75-6.15L183.75-6.15L183.75-6.15Q190.20-8.10 206.77-21.90L206.77-21.90L206.77-21.90Q223.35-35.70 223.35-46.65L223.35-46.65L223.35-46.65Q223.35-53.25 216.75-56.25L216.75-56.25L216.75-56.25Q215.70-56.70 215.70-57.60L215.70-57.60L215.70-57.60Q215.70-58.95 217.35-58.95ZM283.05-73.35L283.05-73.35L283.05-73.35Q283.05-68.70 280.35-68.70L280.35-68.70L280.35-68.70Q279.60-68.70 278.85-69.90L278.85-69.90L278.85-69.90Q277.50-72.30 274.35-72.30L274.35-72.30L274.35-72.30Q267.45-72.30 261.45-62.40L261.45-62.40L261.45-62.40Q260.25-60.45 253.95-48.30L253.95-48.30L255.75-48.30L255.75-48.30Q272.10-48.30 277.50-48.75L277.50-48.75L277.50-48.75Q278.10-48.60 278.10-48.15L278.10-48.15L278.10-48.15Q278.10-46.95 267.45-44.85L267.45-44.85L267.45-44.85Q257.40-43.20 250.95-42L250.95-42L250.95-42Q246.30-32.40 239.70-19.20L239.70-19.20L239.70-19.20Q226.20 6 221.85 12.15L221.85 12.15L221.85 12.15Q208.80 30.75 196.35 30.75L196.35 30.75L196.35 30.75Q192 30.75 188.78 27.07L188.78 27.07L188.78 27.07Q185.55 23.40 185.40 18.90L185.40 18.90L185.40 18.90Q185.85 17.10 186.75 17.10L186.75 17.10L186.75 17.10Q187.20 17.10 187.35 18.15L187.35 18.15L187.35 18.15Q188.25 22.05 190.35 24.15L190.35 24.15L190.35 24.15Q192.45 26.25 194.70 26.25L194.70 26.25L194.70 26.25Q207.45 26.25 217.95 10.50L217.95 10.50L217.95 10.50Q223.95 1.50 234.30-21.90L234.30-21.90L242.40-41.40L242.40-41.40Q227.40-41.55 227.40-45L227.40-45L227.40-45Q227.40-46.50 228.82-47.55L228.82-47.55L228.82-47.55Q230.25-48.60 231.30-48.60L231.30-48.60L245.40-48.30L245.40-48.30Q260.10-81 272.40-81L272.40-81L272.40-81Q277.05-81 281.85-76.50L281.85-76.50L281.85-76.50Q283.05-75.30 283.05-73.35ZM297.30-31.80L297.30-31.80L297.30-31.80Q297.30-26.55 287.25-14.25L287.25-14.25L287.25-14.25Q275.40 0.30 267 0.30L267 0.30L264.60 0.30L264.60 0.30Q260.70 0.30 258.45-3.75L258.45-3.75L258.45-3.75Q256.65-6.60 256.65-10.05L256.65-10.05L256.65-10.05Q256.65-19.05 269.77-35.32L269.77-35.32L269.77-35.32Q282.90-51.60 291-51.60L291-51.60L291-51.60Q298.65-51.60 298.65-43.50L298.65-43.50L298.65-43.50Q298.65-41.40 297.90-38.10L297.90-38.10L297.90-38.10Q298.05-37.65 300.75-37.65L300.75-37.65L300.75-37.65Q303.45-37.65 309-40.50L309-40.50L309-40.50Q308.85-37.95 297.15-33.15L297.15-33.15L297.15-33.15Q297.30-32.55 297.30-31.80ZM287.55-39.60L287.55-39.60L287.55-39.60Q282.45-39.60 273.07-27.60L273.07-27.60L273.07-27.60Q263.70-15.60 263.70-9.90L263.70-9.90L263.70-9.90Q263.70-4.20 267.30-4.20L267.30-4.20L267.30-4.20Q273.75-4.20 283.65-15.90L283.65-15.90L283.65-15.90Q293.55-27.60 293.55-32.70L293.55-32.70L293.55-32.70Q291.15-34.05 287.55-39.60ZM306.15-7.50L306.15-7.50L306.15-7.50Q306.15-3 311.10-3L311.10-3L311.10-3Q316.05-3 323.85-8.25L323.85-8.25L323.85-8.25Q331.65-13.50 339.00-22.50L339.00-22.50L339.00-22.50Q340.80-24.90 341.85-24.90L341.85-24.90L341.85-24.90Q342.90-24.90 342.90-24L342.90-24L342.90-24Q342.90-23.10 336.75-16.20L336.75-16.20L336.75-16.20Q321.75 0.30 311.70 0.30L311.70 0.30L311.70 0.30Q306.75 0.30 303.30-2.02L303.30-2.02L303.30-2.02Q299.85-4.35 299.85-9.22L299.85-9.22L299.85-9.22Q299.85-14.10 302.40-20.55L302.40-20.55L302.40-20.55Q306.75-30.75 316.35-46.20L316.35-46.20L316.35-46.20Q333.90-74.70 341.25-74.70L341.25-74.70L341.25-74.70Q342.75-74.70 344.32-73.58L344.32-73.58L344.32-73.58Q345.90-72.45 346.05-71.10L346.05-71.10L346.05-71.10Q342.60-66.45 332.77-53.25L332.77-53.25L332.77-53.25Q322.95-40.05 319.20-34.27L319.20-34.27L319.20-34.27Q315.45-28.50 313.57-25.65L313.57-25.65L313.57-25.65Q311.70-22.80 310.80-21.22L310.80-21.22L310.80-21.22Q309.90-19.65 308.70-17.10L308.70-17.10L308.70-17.10Q306.15-12 306.15-7.50ZM369.30-61.20L369.30-61.20Q371.55-61.20 373.57-59.77L373.57-59.77L373.57-59.77Q375.60-58.35 375.60-56.40L375.60-56.40L375.60-56.40Q375.60-54.45 373.72-53.02L373.72-53.02L373.72-53.02Q371.85-51.60 369.60-51.60L369.60-51.60L369.60-51.60Q367.35-51.60 365.47-53.25L365.47-53.25L365.47-53.25Q363.60-54.90 363.60-57L363.60-57L363.60-57Q363.60-61.20 369.30-61.20L369.30-61.20ZM342.15 1.65L342.15 1.65L342.15 1.65Q334.50 1.65 334.50-8.25L334.50-8.25L334.50-8.25Q334.50-16.35 343.35-30.67L343.35-30.67L343.35-30.67Q352.20-45 357.60-45.15L357.60-45.15L357.60-45.15Q359.10-45.15 360.97-43.95L360.97-43.95L360.97-43.95Q362.85-42.75 362.85-41.55L362.85-41.55L362.85-41.55Q362.10-40.50 361.05-39.23L361.05-39.23L361.05-39.23Q360.00-37.95 358.80-36.45L358.80-36.45L358.80-36.45Q357.60-34.95 355.50-32.17L355.50-32.17L355.50-32.17Q353.40-29.40 351.45-26.85L351.45-26.85L351.45-26.85Q340.20-12.30 340.20-6.83L340.20-6.83L340.20-6.83Q340.20-1.35 343.95-1.35L343.95-1.35L343.95-1.35Q347.10-1.35 352.50-4.80L352.50-4.80L352.50-4.80Q365.10-12.60 372.45-21.90L372.45-21.90L372.45-21.90Q375.15-25.35 376.12-25.35L376.12-25.35L376.12-25.35Q377.10-25.35 377.10-24.15L377.10-24.15L377.10-24.15Q377.10-22.95 373.65-19.35L373.65-19.35L373.65-19.35Q370.20-15.75 368.17-13.65L368.17-13.65L368.17-13.65Q366.15-11.55 365.40-10.88L365.40-10.88L365.40-10.88Q364.65-10.20 362.62-8.32L362.62-8.32L362.62-8.32Q360.60-6.45 359.55-5.70L359.55-5.70L359.55-5.70Q358.50-4.95 356.55-3.45L356.55-3.45L356.55-3.45Q354.60-1.95 353.10-1.27L353.10-1.27L353.10-1.27Q351.60-0.60 349.65 0.30L349.65 0.30L349.65 0.30Q346.50 1.65 342.15 1.65ZM409.80-31.80L409.80-31.80L409.80-31.80Q409.80-26.55 399.75-14.25L399.75-14.25L399.75-14.25Q387.90 0.30 379.50 0.30L379.50 0.30L377.10 0.30L377.10 0.30Q373.20 0.30 370.95-3.75L370.95-3.75L370.95-3.75Q369.15-6.60 369.15-10.05L369.15-10.05L369.15-10.05Q369.15-19.05 382.27-35.32L382.27-35.32L382.27-35.32Q395.40-51.60 403.50-51.60L403.50-51.60L403.50-51.60Q411.15-51.60 411.15-43.50L411.15-43.50L411.15-43.50Q411.15-41.40 410.40-38.10L410.40-38.10L410.40-38.10Q410.55-37.65 413.25-37.65L413.25-37.65L413.25-37.65Q415.95-37.65 421.50-40.50L421.50-40.50L421.50-40.50Q421.35-37.95 409.65-33.15L409.65-33.15L409.65-33.15Q409.80-32.55 409.80-31.80ZM400.05-39.60L400.05-39.60L400.05-39.60Q394.95-39.60 385.57-27.60L385.57-27.60L385.57-27.60Q376.20-15.60 376.20-9.90L376.20-9.90L376.20-9.90Q376.20-4.20 379.80-4.20L379.80-4.20L379.80-4.20Q386.25-4.20 396.15-15.90L396.15-15.90L396.15-15.90Q406.05-27.60 406.05-32.70L406.05-32.70L406.05-32.70Q403.65-34.05 400.05-39.60Z" fill="#b3b0d5"></path></g></g><style>text {
  font-size: 64px;
  font-family: Arial Black;
  dominant-baseline: central;
  text-anchor: middle;
}</style></svg>