<svg xmlns="http://www.w3.org/2000/svg"
aria-label="Docker" role="img"
viewBox="0 0 512 512">
<defs>
  <filter id="innershadow" x0="-50%" y0="-50%" width="200%" height="200%">
    <feGaussianBlur in="SourceAlpha" stdDeviation="10" result="blur"></feGaussianBlur>
    <feOffset dy="-20" dx="-20"></feOffset>
    <feComposite in2="SourceAlpha" operator="arithmetic" k2="-1" k3="1" result="shadowDiff"></feComposite>
    
    <feFlood flood-color="#444444" flood-opacity="0.6"></feFlood>
    <feComposite in2="shadowDiff" operator="in"></feComposite>
    <feComposite in2="SourceGraphic" operator="over" result="firstfilter"></feComposite>
  </filter>
</defs>
<rect
filter="url(#innershadow)"
width="512" height="512"
rx="15%"
fill="#fff"/><path stroke="#066da5" stroke-width="38" d="M296 226h42m-92 0h42m-91 0h42m-91 0h41m-91 0h42m8-46h41m8 0h42m7 0h42m-42-46h42"/><path fill="#066da5" d="m472 228s-18-17-55-11c-4-29-35-46-35-46s-29 35-8 74c-6 3-16 7-31 7H68c-5 19-5 145 133 145 99 0 173-46 208-130 52 4 63-39 63-39"/></svg>