<?xml version="1.0" encoding="utf-8"?>
<!-- Generator: Adobe Illustrator 22.0.1, SVG Export Plug-In . SVG Version: 6.00 Build 0)  -->
<svg version="1.1" id="Layer_1" xmlns="http://www.w3.org/2000/svg" xmlns:xlink="http://www.w3.org/1999/xlink" x="0px" y="0px"
	 viewBox="0 0 36 30.9" style="enable-background:new 0 0 36 30.9;" xml:space="preserve">
<style type="text/css">
	.st0{fill:#004097;}
	.st1{fill:#00A4E3;}
	.st2{fill:url(#SVGID_1_);}
	.st3{fill:url(#SVGID_2_);}
	.st4{fill:url(#SVGID_3_);}
	.st5{fill:url(#SVGID_4_);}
	.st6{fill:url(#SVGID_5_);}
	.st7{fill:url(#SVGID_6_);}
	.st8{fill:url(#SVGID_7_);}
	.st9{fill:url(#SVGID_8_);}
	.st10{fill:url(#SVGID_9_);}
	.st11{fill:url(#SVGID_10_);}
	.st12{fill:#C01A23;}
	.st13{fill:#D30010;}
	.st14{fill:#0D489A;}
</style>
<path class="st0" d="M1.4,27.8c0.3,0.4,0.5,0.7,0.6,0.9c0,0,0.1,0.1,0.2,0.1c0.1,0,0.2,0,0.4,0c0,0,0,0.1-0.1,0.1c0,0-0.6,0-0.7,0
	c-0.1,0-0.1,0-0.2-0.1c-0.2-0.3-0.4-0.5-0.5-0.8l-0.2,0l0,0.7l0.3,0L1.1,29H0l0.2-0.1l0.2,0l0.1-1.5l-0.4,0l0.2-0.1h1l-0.1,0.1
	l-0.2,0L0.9,28 M0.9,28c0.2-0.1,0.4-0.4,0.8-0.7C2.1,27,2.5,26.8,3,26.5c0.8-0.4,1.3-0.3,1.3-0.3l0.4,0.5c0,0-1.1-0.2-2.4,0.5
	c-0.1,0-0.5,0.2-0.7,0.4l-0.1,0.1"/>
<path class="st1" d="M0.9,28c0.3-0.1,0.5-0.5,0.8-0.7c0.5-0.3,0.7-0.5,1.2-0.8c0.9-0.4,1.3-0.3,1.3-0.3l0.4,0.6c0,0-1.1-0.2-2.4,0.4
	c-0.1,0-0.5,0.2-0.8,0.5l-0.2,0.1"/>
<path class="st0" d="M3,28.1c0-0.6,0.2-0.9,0.6-0.9c0.4,0,0.5,0.3,0.5,0.8c0,0.5-0.2,0.9-0.6,0.9C3.1,28.9,3,28.5,3,28.1z M2.5,28.1
	c0,0.5,0.2,0.9,1,0.9c0.7,0,1.1-0.3,1.1-1.1c0-0.6-0.3-0.8-1-0.8C2.6,27.1,2.5,27.8,2.5,28.1 M5.6,27.3h0.1c0.2,0,0.4,0.1,0.4,0.3
	c0,0.3-0.2,0.4-0.6,0.4h0C5.5,28.1,5.6,27.3,5.6,27.3z M5,28.8l-0.3,0L4.6,29h1.1l0.1-0.1l-0.4,0l0.1-0.7h0.1l0.5,0.7
	c0,0.1,0.1,0.2,0.2,0.2c0,0,0.6,0,0.7-0.1l0-0.1c-0.3,0-0.4,0-0.6-0.3L6,28c0.1,0,0.2-0.1,0.3-0.1c0.2-0.1,0.2-0.2,0.2-0.4
	c0-0.2-0.2-0.3-0.5-0.3H4.8l-0.1,0.1l0.4,0L5,28.8"/>
<path class="st0" d="M7.4,27.4L7.4,27.4L7,27.3l0.2-0.1h0.3c0.4,0,1,0,1.3,0l0.1,0.2c-0.1,0.1-0.2,0.2-0.3,0.2l0,0
	c-0.1-0.2-0.2-0.2-0.5-0.2c-0.1,0-0.2,0-0.3,0c0,0.2,0,0.4-0.1,0.7l0.7,0v0c0,0,0,0-0.1,0.1H8.1c-0.1,0-0.2,0-0.3,0
	c0,0.3,0,0.6-0.1,0.8H8c0.4,0,0.4,0,0.6-0.3c0-0.1,0.1-0.2,0.2-0.3L9,28.2c0,0.1-0.1,0.3-0.1,0.4L8.8,29c-0.1,0-0.4,0-0.6,0H6.8
	L7,28.9l0.2,0L7.4,27.4 M10.1,27.5l0.2,0.8H9.7C9.7,28.2,10.1,27.5,10.1,27.5z M10.1,27.2c-0.3,0.6-0.6,1.1-1,1.6l-0.2,0L8.8,29h0.9
	l0.1-0.1l-0.4,0l0.2-0.5h0.7l0.2,0.6c0,0,0.1,0.1,0.1,0.1c0,0,0.1,0,0.2,0l0.5-0.1l0.1-0.1h-0.2c-0.2,0-0.3,0-0.4-0.4
	c-0.2-0.5-0.2-0.9-0.3-1.3L10.1,27.2 M12.3,27.1h1.1c0.3,0,0.6,0.1,0.6,0.4c0,0.3-0.2,0.6-0.8,0.6c-0.1,0-0.2,0-0.2,0v-0.1h0
	c0.3,0,0.5-0.1,0.5-0.5c0-0.3-0.2-0.4-0.4-0.4h-0.1c0,0.5-0.1,1.1-0.1,1.6l0.5,0c0,0.1-0.1,0.1-0.2,0.1H12l0.1-0.1l0.2,0
	c0-0.5,0.1-1,0.1-1.5l-0.3,0L12.3,27.1"/>
<path class="st1" d="M14.7,27.6c0-0.1,0.1-0.2,0.2-0.2c0.1,0,0.2,0.1,0.2,0.1c0,0.1-0.2,0.2-0.3,0.3C14.8,27.8,14.7,27.7,14.7,27.6z
	 M14.1,28.4c0,0.2,0.2,0.4,0.4,0.4c0.2,0,0.4-0.1,0.6-0.2c0.1,0.1,0.3,0.2,0.4,0.2c0.1,0,0.3-0.1,0.5-0.3l0.1-0.1c0,0,0,0,0-0.1v0
	L16,28.4c-0.2,0.1-0.2,0.1-0.3,0.1c-0.1,0-0.2,0-0.3-0.1l0.1,0c0.1-0.1,0.1-0.1,0.2-0.2c0.1-0.1,0.1-0.2,0.1-0.3
	c0.1,0,0.1,0,0.2-0.1c0.1,0,0.1-0.1,0.2-0.2c0,0,0.1-0.1,0.1-0.1c0-0.1,0-0.1-0.1-0.2l-0.2,0.1c0,0,0,0.1,0,0.1c0,0.1,0,0.1-0.1,0.2
	c-0.1,0-0.3,0-0.5,0c-0.1,0-0.2,0-0.3,0c0.1-0.1,0.3-0.2,0.3-0.3c0-0.2-0.2-0.2-0.2-0.2c-0.1,0-0.3,0.1-0.5,0.3c0,0-0.1,0.1-0.1,0.2
	c0,0,0,0.1,0,0.2C14.3,28.1,14.1,28.2,14.1,28.4L14.1,28.4z M15.1,27.9h0.3V28c0,0.1,0,0.1,0,0.2c0,0-0.1,0.1-0.1,0.2
	c-0.2-0.1-0.3-0.3-0.5-0.5H15.1z M14.4,28.3c0-0.2,0.1-0.2,0.2-0.2c0.1,0.2,0.2,0.4,0.4,0.6c-0.1,0-0.2,0-0.2,0
	C14.6,28.6,14.4,28.5,14.4,28.3"/>
<path class="st0" d="M16.2,28.9l0.3,0l0.1-1.5l-0.3,0l0.1-0.1h1.1l-0.2,0.1l-0.2,0L17,28.8l0.4,0L17.2,29h-1.1L16.2,28.9"/>
<linearGradient id="SVGID_1_" gradientUnits="userSpaceOnUse" x1="27.2322" y1="17.4295" x2="35.9838" y2="17.4295" gradientTransform="matrix(1 0 0 -1 0 33)">
	<stop  offset="0" style="stop-color:#0B3F95"/>
	<stop  offset="0.673" style="stop-color:#226AB1"/>
</linearGradient>
<path class="st2" d="M27.2,13.5c0,0,0.4,1.5,0.2,2.5c0,0,1.7,1.6,4.1,1.6c2.6,0,4.4-1.8,4.4-1.8v-2.3c0,0-1.9,1.9-4.3,1.9
	C29.1,15.4,27.2,13.5,27.2,13.5z"/>
<linearGradient id="SVGID_2_" gradientUnits="userSpaceOnUse" x1="26.9946" y1="14.1038" x2="35.9784" y2="14.1038" gradientTransform="matrix(1 0 0 -1 0 33)">
	<stop  offset="0" style="stop-color:#0B3F95"/>
	<stop  offset="0.673" style="stop-color:#226AB1"/>
</linearGradient>
<path class="st3" d="M27.4,17L27,18.9c0,0,1.8,2.1,4.5,2.1s4.5-1.9,4.5-1.9v-2.3c0,0-2,1.9-4.4,1.9C29.3,18.7,27.4,17,27.4,17z"/>
<linearGradient id="SVGID_3_" gradientUnits="userSpaceOnUse" x1="25.714" y1="10.929" x2="35.9503" y2="10.929" gradientTransform="matrix(1 0 0 -1 0 33)">
	<stop  offset="0" style="stop-color:#0B3F95"/>
	<stop  offset="0.673" style="stop-color:#226AB1"/>
	<stop  offset="0.982" style="stop-color:#001B32"/>
</linearGradient>
<path class="st4" d="M26.7,19.8l-1,1.7c0,0,0.8,0.4,1.8,1.3c1,0.9,2.5,1.6,4,1.6c1.5,0,3.4-0.7,4.5-1.8v-2.3c0,0-1.8,1.9-4.4,1.9
	S26.7,19.8,26.7,19.8z"/>
<linearGradient id="SVGID_4_" gradientUnits="userSpaceOnUse" x1="23.1074" y1="7.9814" x2="35.9568" y2="7.9814" gradientTransform="matrix(1 0 0 -1 0 33)">
	<stop  offset="0" style="stop-color:#0B3F95"/>
	<stop  offset="0.606" style="stop-color:#226AB1"/>
	<stop  offset="0.982" style="stop-color:#001B32"/>
</linearGradient>
<path class="st5" d="M23.1,24.1l2-1.8c0,0,0.9,0.3,2.8,1.9c0,0,1.7,1.4,3.7,1.3c2,0,3.7-1.1,4.4-1.9v2.3c0,0-1.6,1.9-4.4,1.9
	S27,25.5,26,25C24.4,24.2,23.1,24.1,23.1,24.1L23.1,24.1z"/>
<linearGradient id="SVGID_5_" gradientUnits="userSpaceOnUse" x1="18.054" y1="5.0336" x2="35.9784" y2="5.0336" gradientTransform="matrix(1 0 0 -1 0 33)">
	<stop  offset="0" style="stop-color:#0B3F95"/>
	<stop  offset="0.513" style="stop-color:#226AB1"/>
	<stop  offset="0.982" style="stop-color:#001B32"/>
</linearGradient>
<path class="st6" d="M18.1,29v-2.3c0,0,2.1-1.7,4.6-1.7s3.8,1.2,5.2,2.3c1.4,1.1,3.2,1.4,4.3,1.3c1.1-0.1,2.8-0.8,3.8-1.8v2.3
	c0,0-1.6,1.8-4.5,1.8c-2.9,0-4.6-2.3-5.7-2.9C24.7,27.6,22.1,26.2,18.1,29z"/>
<linearGradient id="SVGID_6_" gradientUnits="userSpaceOnUse" x1="0.108" y1="30.0198" x2="18.0324" y2="30.0198" gradientTransform="matrix(1 0 0 -1 0 33)">
	<stop  offset="7.000000e-02" style="stop-color:#001F38"/>
	<stop  offset="0.42" style="stop-color:#1E62AC"/>
	<stop  offset="1" style="stop-color:#0A4196"/>
</linearGradient>
<path class="st7" d="M0.1,4V1.7c0,0,1.8-1.7,4.6-1.7s3.2,0.7,5.7,2.7c0,0,1.9,1.3,3.9,1c2-0.3,3.7-1.8,3.7-1.8v2.3
	c0,0-1.8,1.9-4.5,1.9C11,6,9.6,4.2,8.8,3.8S5,0.6,0.1,4z"/>
<linearGradient id="SVGID_7_" gradientUnits="userSpaceOnUse" x1="0.108" y1="27.2162" x2="12.2232" y2="27.2162" gradientTransform="matrix(1 0 0 -1 0 33)">
	<stop  offset="7.000000e-02" style="stop-color:#001F38"/>
	<stop  offset="0.42" style="stop-color:#1E62AC"/>
	<stop  offset="1" style="stop-color:#0A4196"/>
</linearGradient>
<path class="st8" d="M10.3,8.3l2-1.5c0,0-0.8,0-2.4-1.3C9.2,5,7.4,3.4,5.2,3.3C3,3.2,0.9,4.3,0.1,5v2.3c0,0,2.4-2.1,5.2-1.7
	C8.1,6,10.3,8.3,10.3,8.3z"/>
<linearGradient id="SVGID_8_" gradientUnits="userSpaceOnUse" x1="8.638272e-02" y1="24.297" x2="9.6533" y2="24.297" gradientTransform="matrix(1 0 0 -1 0 33)">
	<stop  offset="0" style="stop-color:#001F38"/>
	<stop  offset="0.42" style="stop-color:#1E62AC"/>
	<stop  offset="1" style="stop-color:#0A4196"/>
</linearGradient>
<path class="st9" d="M9.7,8.9c0,0-2-2.2-4.9-2.2c-2.9,0-4.7,1.8-4.7,1.8v2.3c0,0,2.2-1.9,4.9-1.7c2.3,0.1,3.6,1.3,3.6,1.3L9.7,8.9z"
	/>
<linearGradient id="SVGID_9_" gradientUnits="userSpaceOnUse" x1="8.638272e-02" y1="20.8955" x2="8.1526" y2="20.8955" gradientTransform="matrix(1 0 0 -1 0 33)">
	<stop  offset="0.42" style="stop-color:#1E62AC"/>
	<stop  offset="1" style="stop-color:#0A4196"/>
</linearGradient>
<path class="st10" d="M7.4,13L8.2,11c0,0-1.6-1.2-4.1-0.9s-3.9,1.7-3.9,1.7v2.3c0,0,1.8-1.6,4.1-1.7C6.4,12.3,7.4,13,7.4,13z"/>
<linearGradient id="SVGID_10_" gradientUnits="userSpaceOnUse" x1="0.1009" y1="17.6983" x2="7.1842" y2="17.6983" gradientTransform="matrix(1 0 0 -1 0 33)">
	<stop  offset="0.42" style="stop-color:#1E62AC"/>
	<stop  offset="1" style="stop-color:#0A4196"/>
</linearGradient>
<path class="st11" d="M7.2,13.7L7,16c0,0-2.9-1.7-6.9,1.3V15c0,0,1.6-1.3,3.2-1.5C5.7,13,7.2,13.7,7.2,13.7z"/>
<path class="st12" d="M14.4,10.6c-0.2,0-0.3,0.3-0.3,0.3v2.2c0.7,0,1.1-0.1,1.4-0.3c0.3-0.3,0.4-1.3,0.1-1.7
	C15.2,10.6,14.6,10.6,14.4,10.6z"/>
<path class="st13" d="M19.7,6.7c0,0-5-1.5-8.9,2.4s-2.8,8.1,0.9,9.4c3.7,1.3,5.2-2.1,5.4-3.1c0.4-1.6,2.1-3.3,4.3-3.5
	c1.9-0.2,4.2,0.7,5.2,4C26.7,15.7,26.9,8.8,19.7,6.7z M15.6,13.4l-1.5,0v1.8c0,0,0,0.3,0.3,0.4c0.3,0.1,0.6,0.1,0.6,0.1V16h-3.5
	v-0.3c0,0,0.8,0.1,0.9-0.5v-4.1c0,0,0.2-0.6-0.9-0.6v-0.2h4c0,0,1.5,0.1,1.9,1C17.8,12.2,17.4,13.2,15.6,13.4z"/>
<path class="st14" d="M21.8,13.4c-2.5-0.2-3.8,1.8-4.4,3c-0.2,0.6-0.4,2.5-3.1,3.5C9.9,21.7,8,17.3,8,17.3c1.5,7.5,8.7,8.9,12.8,7.1
	c3.3-1.4,5.1-4.2,5.4-5.8C26.6,17.1,25.6,13.7,21.8,13.4z M22.8,16.2c0,0-0.9,0-1,0.6V21c0,0,0,0.5,1,0.5v0.2h-3.6v-0.2
	c0,0,0.9,0,1-0.5v-4.3c0,0,0-0.5-1-0.5V16h3.6C22.8,16,22.8,16.2,22.8,16.2z"/>
</svg>
