<svg version="1.1" id="svg2" xml:space="preserve" width="191.71072" height="97.410622" viewBox="0 0 191.71072 97.410622"
  xmlns="http://www.w3.org/2000/svg">
  <defs id="defs6">
    <clipPath clipPathUnits="userSpaceOnUse" id="clipPath16">
      <path d="M 0,595.28 H 419.53 V 0 H 0 Z" id="path14"></path>
    </clipPath>
  </defs>
  <g id="g8" transform="matrix(1.3333333,0,0,-1.3333333,-184.28979,441.34132)">
    <g id="g10">
      <g id="g12" clip-path="url(#clipPath16)">
        <g id="g18" transform="translate(179.1362,298.1553)">
          <path d="m 0,0 -0.358,27.802 c 0,0 32.628,8.252 48.901,-21.919 L 16.646,-6.741 C 16.646,-6.741 8.493,0.771 0,0" style="fill:#0c4035;fill-opacity:1;fill-rule:evenodd;stroke:none" id="path20"></path>
        </g>
        <g id="g22" transform="translate(191.2412,283.1055)">
          <path d="m 0,0 c 0,0 4.403,-21.135 -16.792,-24.767 0,0 -14.912,-2.914 -26.501,7.179 l 18.607,12.519 c 0,0 5.011,-7.662 13.57,-5.847 C -1.96,-8.943 -0.843,-1.88 0,0" style="fill:#0c4035;fill-opacity:1;fill-rule:evenodd;stroke:none" id="path24"></path>
        </g>
        <g id="g26" transform="translate(149.1709,268.6357)">
          <path d="m 0,0 17.174,10.871 c 0,0 -2.162,5.974 0.326,10.814 l -28.404,13.001 c 0,0 -1.417,-22.227 10.904,-34.686" style="fill:#0c4035;fill-opacity:1;fill-rule:evenodd;stroke:none" id="path28"></path>
        </g>
        <g id="g30" transform="translate(143.9023,302.709)">
          <path d="m 0,0 23.595,-11.198 c 0,0 3.137,5.705 10.299,6.593 l -2.19,32.902 C 31.704,28.297 7.691,20.32 0,0" style="fill:#0c4035;fill-opacity:1;fill-rule:evenodd;stroke:none" id="path32"></path>
        </g>
        <g id="g34" transform="translate(212.5049,287.8945)">
          <path d="m 0,0 0.03,-13.909 -9.358,13.876 -5.77,-0.021 0.086,-22.882 5.778,0.029 -0.077,14.4 9.386,-14.362 5.769,0.023 L 5.76,0.022 Z" style="fill:#0c4035;fill-opacity:1;fill-rule:evenodd;stroke:none" id="path36"></path>
        </g>
        <g id="g38" transform="translate(227.3037,269.5469)">
          <path d="M 0,0 -0.03,5.554 11.068,5.597 11.037,9.604 -0.05,9.561 l -0.015,4.71 11.912,0.054 -0.02,4.118 -11.914,-0.046 h -0.935 l -4.952,-0.011 0.094,-22.877 4.947,0.023 h 0.949 l 12.134,0.046 -0.015,4.485 z" style="fill:#0c4035;fill-opacity:1;fill-rule:evenodd;stroke:none" id="path40"></path>
        </g>
        <g id="g42" transform="translate(258.4424,265.2109)">
          <path d="M 0,0 6.134,0.011 11.585,18.43 17.313,0.047 23.558,0.069 15.112,22.915 8.267,22.896 Z" style="fill:#0c4035;fill-opacity:1;fill-rule:evenodd;stroke:none" id="path44"></path>
        </g>
        <g id="g46" transform="translate(255.2744,288.0586)">
          <path d="m 0,0 -3.179,-0.01 0.009,-3.886 h 0.248 c 0,0 3.068,0.009 3.068,-3.293 0,0 -0.222,-3.068 -3.044,-3.083 h -0.246 l 0.009,-3.765 h 3.181 c 5.562,0.022 5.763,6.864 5.763,6.864 C 5.782,0.131 0,0 0,0 m -3.179,-0.01 -3.3,-0.019 h -0.23 l -5.78,-0.019 0.087,-22.867 6.008,0.012 -0.007,8.848 3.266,0.018 -0.009,3.765 -3.289,-0.015 -0.015,6.262 0.101,0.111 3.177,0.018 z" style="fill:#0c4035;fill-opacity:1;fill-rule:evenodd;stroke:none" id="path48"></path>
        </g>
      </g>
    </g>
  </g>
</svg>
