<?xml version="1.0" standalone="no"?>
<!DOCTYPE svg PUBLIC "-//W3C//DTD SVG 20010904//EN"
 "http://www.w3.org/TR/2001/REC-SVG-20010904/DTD/svg10.dtd">
<svg version="1.0" xmlns="http://www.w3.org/2000/svg"
 width="300.000000pt" height="157.000000pt" viewBox="0 0 300.000000 157.000000"
 preserveAspectRatio="xMidYMid meet">
<metadata>
Created by potrace 1.10, written by Peter Selinger 2001-2011
</metadata>
<g transform="translate(0.000000,157.000000) scale(0.100000,-0.100000)"
fill="#FFFFFF" stroke="none">
<path d="M1473 1069 c-18 -5 -38 -19 -44 -31 -10 -18 -8 -25 12 -41 13 -11 22
-25 21 -31 -2 -6 -6 -20 -8 -32 -2 -11 -13 -56 -24 -100 -12 -43 -23 -92 -26
-109 -4 -16 -10 -38 -15 -47 -25 -47 11 -109 61 -103 36 4 74 21 93 40 15 14
19 14 57 -11 59 -40 113 -40 172 -3 26 17 56 44 66 61 l19 30 6 -31 c4 -17 19
-44 34 -60 23 -23 35 -28 66 -25 42 4 47 -8 22 -56 -19 -36 -41 -39 -49 -5
-14 54 -71 53 -100 -3 -16 -31 -9 -58 23 -86 31 -29 129 -26 173 5 48 34 64
57 86 119 25 71 61 222 68 281 6 55 -2 64 -72 76 -87 16 -154 -15 -219 -102
-14 -20 -14 -20 -15 -1 0 27 -40 83 -68 95 -34 16 -99 13 -138 -5 -73 -35
-136 -153 -119 -222 5 -22 5 -22 -18 -7 l-23 15 44 180 c44 175 45 180 27 200
-20 22 -58 25 -112 9z m101 -17 c2 -4 -17 -96 -44 -202 -27 -107 -50 -196 -50
-197 0 -2 14 -3 30 -3 47 0 37 -26 -14 -39 -53 -13 -83 -14 -90 -3 -4 7 67
313 88 380 7 20 4 22 -24 22 -43 0 -34 22 16 37 47 14 81 16 88 5z m248 -191
c29 -26 33 -35 32 -79 -1 -108 -86 -189 -187 -179 -69 6 -89 32 -84 109 8 138
152 227 239 149z m317 18 c17 -6 31 -15 31 -20 0 -5 -19 -85 -42 -177 -38
-152 -45 -170 -78 -206 -34 -36 -43 -40 -96 -44 -48 -3 -64 0 -83 15 -19 15
-23 25 -17 46 3 15 15 31 26 37 17 9 21 6 34 -25 18 -43 40 -53 66 -30 19 17
50 89 64 149 l7 29 -31 -27 c-36 -30 -84 -34 -112 -9 -13 12 -18 30 -18 67 1
142 124 238 249 195z"/>
<path d="M1707 842 c-41 -45 -66 -177 -39 -204 20 -20 61 0 81 41 26 50 37
132 22 160 -14 26 -42 27 -64 3z m49 -37 c8 -49 -52 -179 -68 -148 -23 43 15
178 48 171 10 -2 19 -12 20 -23z"/>
<path d="M2040 846 c-54 -30 -101 -166 -67 -195 36 -29 86 30 110 131 10 37
17 70 17 73 0 10 -35 4 -60 -9z m23 -48 c-3 -18 -10 -37 -14 -42 -5 -6 -9 -17
-9 -26 0 -19 -37 -56 -46 -47 -14 14 10 92 36 119 36 36 41 35 33 -4z"/>
<path d="M1040 908 c-14 -4 -31 -17 -38 -29 -11 -18 -11 -24 2 -38 18 -20 20
-48 6 -85 -16 -42 -25 -30 -39 49 -17 94 -33 110 -96 100 -26 -3 -55 -15 -66
-26 -19 -19 -19 -22 -6 -42 9 -12 20 -21 26 -20 16 4 27 -25 41 -111 19 -122
32 -142 87 -127 25 6 66 52 135 152 17 24 17 24 17 -24 1 -69 22 -102 76 -123
39 -14 52 -15 88 -5 61 18 88 38 80 59 -10 26 -25 33 -63 27 -19 -3 -41 -1
-49 4 -16 10 -5 34 12 28 20 -6 106 39 132 69 32 38 33 83 0 118 -20 21 -33
26 -74 26 -67 0 -94 -12 -144 -64 l-43 -43 4 34 c7 55 -36 89 -88 71z m-88
-123 c10 -55 19 -107 20 -115 4 -21 69 86 75 124 4 23 -1 36 -16 50 -20 18
-20 20 -3 32 22 17 54 18 70 2 29 -29 1 -103 -82 -215 -38 -52 -51 -63 -74
-63 -28 0 -29 1 -46 103 -24 140 -23 137 -58 137 -41 0 -31 22 18 37 74 23 77
20 96 -92z m418 85 c11 -11 20 -29 20 -41 0 -36 -60 -86 -126 -104 -32 -10
-60 -18 -62 -20 -1 -1 3 -16 9 -33 13 -37 36 -47 83 -34 34 10 46 7 46 -9 0
-11 -67 -29 -108 -29 -39 0 -87 23 -96 45 -16 44 0 125 35 176 42 60 159 89
199 49z"/>
<path d="M1252 838 c-20 -22 -42 -68 -42 -89 0 -19 82 36 96 64 26 48 -14 67
-54 25z m28 -22 c0 -8 -7 -16 -15 -20 -12 -4 -13 -2 -2 14 14 24 17 25 17 6z"/>
</g>
</svg>
